<?xml version="1.0" standalone="no"?>
<!DOCTYPE svg PUBLIC "-//W3C//DTD SVG 20010904//EN"
 "http://www.w3.org/TR/2001/REC-SVG-20010904/DTD/svg10.dtd">
<svg version="1.0" xmlns="http://www.w3.org/2000/svg"
 width="227.000000pt" height="95.000000pt" viewBox="0 0 227.000000 95.000000"
 preserveAspectRatio="xMidYMid meet">

<g transform="translate(0.000000,95.000000) scale(0.100000,-0.100000)"
fill="#000000" stroke="none">
<path d="M213 758 c-19 -22 -63 -88 -51 -78 9 8 78 100 75 100 -2 0 -13 -10
-24 -22z"/>
<path d="M308 755 c-48 -25 -89 -70 -106 -115 -17 -45 -24 -100 -12 -100 5 0
10 11 10 25 0 71 82 170 164 199 32 11 36 14 16 15 -14 0 -46 -11 -72 -24z"/>
<path d="M815 616 c-22 -8 -53 -21 -70 -30 -16 -9 -47 -16 -68 -16 -31 0 -39
-4 -47 -26 -19 -50 -14 -57 33 -51 24 3 52 9 62 12 17 6 17 4 -4 -14 -13 -12
-37 -21 -56 -21 -29 0 -36 -5 -54 -43 -49 -102 -48 -209 4 -288 42 -65 138
-88 225 -53 35 14 42 22 55 67 8 28 15 52 15 53 0 2 -15 -5 -32 -16 -118 -68
-190 1 -152 145 40 155 141 231 232 175 18 -11 34 -20 36 -20 2 0 7 16 11 36
8 44 -19 79 -74 94 -46 13 -66 12 -116 -4z"/>
<path d="M1465 578 c-3 -7 -34 -114 -70 -238 -36 -124 -68 -231 -70 -238 -4
-10 9 -12 52 -10 l56 3 53 180 c30 99 62 210 73 248 l19 67 -54 0 c-35 0 -56
-5 -59 -12z"/>
<path d="M1057 553 c-2 -5 -12 -36 -22 -70 -16 -54 -21 -63 -42 -63 -16 0 -27
-8 -33 -26 -14 -36 -13 -44 10 -44 11 0 20 -5 20 -11 0 -11 -55 -204 -67 -234
-5 -14 3 -16 52 -13 l58 3 36 125 c37 125 37 125 69 128 21 2 32 -1 32 -10 0
-7 -16 -65 -35 -128 -19 -63 -35 -116 -35 -117 0 -2 24 -3 54 -3 l54 0 32 102
c37 121 50 138 100 138 34 0 38 3 44 31 3 17 6 38 6 45 0 16 -33 18 -61 4 -13
-7 -19 -7 -19 0 0 6 -35 10 -90 10 -49 0 -90 1 -90 3 0 1 9 32 19 70 l20 67
-54 0 c-30 0 -56 -3 -58 -7z"/>
<path d="M1550 324 c0 -12 9 -14 42 -12 59 4 63 28 4 28 -35 0 -46 -4 -46 -16z"/>
</g>
</svg>
